<?xml version="1.0" encoding="UTF-8" standalone="no"?>
<!-- Created with Inkscape (http://www.inkscape.org/) -->

<svg
   xmlns:dc="http://purl.org/dc/elements/1.1/"
   xmlns:cc="http://creativecommons.org/ns#"
   xmlns:rdf="http://www.w3.org/1999/02/22-rdf-syntax-ns#"
   xmlns:svg="http://www.w3.org/2000/svg"
   xmlns="http://www.w3.org/2000/svg"
   xmlns:sodipodi="http://sodipodi.sourceforge.net/DTD/sodipodi-0.dtd"
   xmlns:inkscape="http://www.inkscape.org/namespaces/inkscape"
   width="1024"
   height="1024"
   viewBox="0 0 270.93333 270.93333"
   version="1.1"
   id="svg8"
   inkscape:version="0.92.4 (5da689c313, 2019-01-14)"
   sodipodi:docname="BVA-logo.white.svg">
  <defs
     id="defs2" />
  <sodipodi:namedview
     id="base"
     pagecolor="#ffffff"
     bordercolor="#666666"
     borderopacity="1.0"
     inkscape:pageopacity="0.0"
     inkscape:pageshadow="2"
     inkscape:zoom="0.7"
     inkscape:cx="105.5586"
     inkscape:cy="536.60216"
     inkscape:document-units="mm"
     inkscape:current-layer="g897"
     showgrid="false"
     units="px"
     width="1024px"
     showguides="true"
     inkscape:guide-bbox="true"
     inkscape:window-width="1920"
     inkscape:window-height="1017"
     inkscape:window-x="-8"
     inkscape:window-y="728"
     inkscape:window-maximized="1" />
  <metadata
     id="metadata5">
    <rdf:RDF>
      <cc:Work
         rdf:about="">
        <dc:format>image/svg+xml</dc:format>
        <dc:type
           rdf:resource="http://purl.org/dc/dcmitype/StillImage" />
        <dc:title />
      </cc:Work>
    </rdf:RDF>
  </metadata>
  <g
     style="display:inline"
     inkscape:label="white"
     id="g897"
     inkscape:groupmode="layer"
     sodipodi:insensitive="true">
    <rect
       ry="32.078541"
       y="29.315479"
       x="46.823513"
       height="180.87706"
       width="177.28629"
       id="rect893"
       style="opacity:1;fill:#ffffff;fill-opacity:1;stroke:none;stroke-width:8.8972578;stroke-linecap:square;stroke-linejoin:round;stroke-miterlimit:4;stroke-dasharray:none;stroke-dashoffset:111.40837097;stroke-opacity:1;paint-order:fill markers stroke" />
    <path
       inkscape:connector-curvature="0"
       id="path895"
       d="m 141.98473,16.849249 -9.10183,27.847104 h 17.80631 l 9.47215,-27.847104 z m 8.70448,27.847104 -45.55532,133.925117 H 78.859081 L 80.369536,61.511096 H 100.34522 L 97.333552,152.3552 h 0.359662 L 132.8829,44.696353 H 78.827095 c -9.203446,0 -16.612873,7.409431 -16.612873,16.612874 V 178.49779 c 0,9.20343 7.409427,16.61288 16.612873,16.61288 H 192.10625 c 9.20344,0 16.61287,-7.40945 16.61287,-16.61288 V 61.309227 c 0,-9.203443 -7.40943,-16.612874 -16.61287,-16.612874 z m 14.57074,16.814743 h 26.81431 l -0.0704,117.110374 H 172.208 l 0.48831,-23.25461 -0.0583,0.33408 h -22.49538 l -7.62833,22.92053 h -18.35577 z m 8.82959,20.410688 -18.81352,57.885606 h 17.81626 l 1.35692,-57.885606 z"
       style="opacity:1;fill:#000000;fill-opacity:1;stroke:none;stroke-width:6.06154251;stroke-linecap:square;stroke-linejoin:round;stroke-miterlimit:4;stroke-dasharray:none;stroke-dashoffset:111.40837097;stroke-opacity:1;paint-order:fill markers stroke" />
  </g>
  <g
     inkscape:label="Layer 1"
     inkscape:groupmode="layer"
     id="layer1"
     transform="translate(0,-26.066667)"
     style="display:inline"
     sodipodi:insensitive="true">
    <g
       aria-label="VA"
       transform="matrix(1.0440736,0,-0.17061729,0.9706205,119.98145,-278.18544)"
       style="font-style:normal;font-variant:normal;font-weight:normal;font-stretch:normal;font-size:40px;line-height:1.25;font-family:'DS arab';-inkscape-font-specification:'DS arab';letter-spacing:-0.0600662px;word-spacing:0px;fill:#000000;fill-opacity:1;stroke:#000000;stroke-width:10.5890398;stroke-linecap:square;stroke-miterlimit:4;stroke-dasharray:none;stroke-opacity:1"
       id="flowRoot903" />
    <flowRoot
       xml:space="preserve"
       id="flowRoot826"
       style="font-style:normal;font-variant:normal;font-weight:normal;font-stretch:normal;font-size:40px;line-height:1.25;font-family:'DS arab';-inkscape-font-specification:'DS arab';letter-spacing:0px;word-spacing:0px;fill:#000000;fill-opacity:1;stroke:none"><flowRegion
         id="flowRegion828"><rect
           id="rect830"
           width="1098.5714"
           height="641.42859"
           x="-91.428574"
           y="184" /></flowRegion><flowPara
         id="flowPara832" /></flowRoot>    <g
       id="g918"
       transform="matrix(0.13271017,0,0,0.12337368,24.970275,248.5101)"
       style="fill:#ffffff">
      <path
         id="path908"
         d="M 230.555,35.538 C 223.736,27.341 211.214,23.356 192.274,23.356 H 141.409 L 128.791,91.44 78.234,91.415 72.596,117.7 H 15.662 l 85.117,27.189 5.786,-24.639 h 16.886 l -13.938,75.24 h 53.844 c 33.472,0 53.832,-14.406 58.877,-41.663 l 2.517,-13.625 c 3.34,-18.003 -1.253,-29.919 -14.032,-36.255 13.067,-6.204 20.647,-16.897 23.688,-33.253 l 1.107,-5.972 c 2.366,-12.783 0.744,-22.329 -4.959,-29.184 z m -42.667,102.096 -2.7,14.568 c -1.923,10.418 -6.802,14.479 -17.403,14.479 h -15.583 l 8.603,-46.449 h 12.371 c 7.107,0 11.392,1.172 13.484,3.689 2.074,2.496 2.476,6.98 1.228,13.713 z m 9.955,-71.184 -1.725,9.312 c -2.036,10.986 -8.102,15.674 -20.282,15.674 h -9.697 l 7.277,-39.296 h 13.554 c 4.844,0 8.015,0.98 9.693,2.999 1.802,2.167 2.189,5.868 1.18,11.311 z"
         inkscape:connector-curvature="0"
         style="fill:#ffffff" />
      <path
         id="path910"
         d="m 271.524,197.642 c -17.253,0 -29.665,-4.39 -36.89,-13.049 -6.434,-7.711 -8.456,-18.437 -6.009,-31.878 L 252.194,23.4 h 37.28 l -24.03,131.862 c -0.853,4.679 -0.407,8.104 1.325,10.18 1.752,2.1 5.128,3.165 10.035,3.165 10.161,0 15.49,-4.387 17.28,-14.224 L 317.957,23.4 h 35.517 l -23.721,130.194 c -5.18,28.405 -25.859,44.048 -58.229,44.048 z"
         inkscape:connector-curvature="0"
         style="fill:#ffffff" />
      <path
         id="path912"
         d="M 452.206,35.562 C 445.378,27.375 432.872,23.395 413.975,23.395 H 363.2 l -31.354,172.087 h 37.27 l 12.412,-68.059 h 9.106 c 6.761,0 11.125,1.293 13.342,3.951 2.285,2.739 2.779,7.452 1.511,14.408 l -4.795,26.265 c -2.525,13.869 -1.85,16.823 -0.827,21.295 l 0.488,2.14 h 38.253 l -1.098,-3.239 c -1.941,-5.726 -1.159,-11.271 0.256,-19.075 l 4.706,-25.795 c 2.146,-11.758 3.04,-27.73 -11.73,-35.911 13.232,-6.252 21.136,-17.29 24.1,-33.592 l 2.394,-13.124 c 2.331,-12.787 0.687,-22.332 -5.028,-29.184 z M 419.65,66.49 416.641,82.976 c -1.999,10.975 -8.035,15.656 -20.184,15.656 h -9.687 l 8.471,-46.444 h 13.514 c 4.83,0 7.996,0.979 9.679,2.996 1.809,2.167 2.207,5.866 1.216,11.306 z"
         inkscape:connector-curvature="0"
         style="fill:#ffffff" />
      <path
         id="path914"
         d="m 490.253,197.396 c -17.255,0 -29.666,-4.39 -36.889,-13.047 -6.433,-7.709 -8.452,-18.433 -6.005,-31.874 l 2.244,-12.276 h 35.511 l -2.704,14.824 c -0.852,4.682 -0.404,8.109 1.329,10.187 1.753,2.102 5.129,3.167 10.033,3.167 10.162,0 15.491,-4.39 17.277,-14.232 1.847,-10.104 -0.758,-18.132 -20.116,-33.966 -23.341,-19.223 -30.617,-34.031 -26.856,-54.643 5.178,-28.404 25.646,-44.047 57.634,-44.047 16.979,0 29.205,4.335 36.339,12.884 6.432,7.708 8.442,18.489 5.976,32.042 l -1.328,7.268 H 527.19 l 1.78,-9.816 c 0.9,-4.937 0.473,-8.5 -1.272,-10.592 -1.681,-2.016 -4.771,-2.995 -9.447,-2.995 -9.756,0 -14.921,4.461 -16.746,14.465 -1.839,10.104 0.769,18.132 20.126,33.967 23.338,19.217 30.614,34.025 26.854,54.643 -5.188,28.4 -25.869,44.041 -58.232,44.041 z"
         inkscape:connector-curvature="0"
         style="fill:#ffffff" />
      <path
         id="path916"
         d="M 613.053,195.481 H 575.776 L 601.887,52.188 h -33.769 l 5.26,-28.789 h 104.796 l -5.248,28.789 h -33.757 z"
         inkscape:connector-curvature="0"
         style="fill:#ffffff" />
    </g>
    <g
       aria-label="VERIFIED ASSETS"
       transform="matrix(0.87868325,0,-0.13333901,0.87868325,62.687503,25.16134)"
       style="font-style:normal;font-variant:normal;font-weight:normal;font-stretch:normal;font-size:28.32672882px;line-height:1.25;font-family:'Bebas Neue';-inkscape-font-specification:'Bebas Neue, Normal';font-variant-ligatures:normal;font-variant-caps:normal;font-variant-numeric:normal;font-feature-settings:normal;text-align:start;letter-spacing:0px;word-spacing:0px;writing-mode:lr-tb;text-anchor:start;fill:#ffffff;fill-opacity:1;stroke:none;stroke-width:0.70816809"
       id="text963">
      <path
         d="m 104.40623,259.50732 h 3.14426 l 2.03953,15.38141 h 0.0567 l 2.03953,-15.38141 h 2.861 l -3.00264,19.82871 h -4.1357 z"
         style="font-style:normal;font-variant:normal;font-weight:normal;font-stretch:normal;font-size:28.32672882px;font-family:'Bebas Neue';-inkscape-font-specification:'Bebas Neue, Normal';font-variant-ligatures:normal;font-variant-caps:normal;font-variant-numeric:normal;font-feature-settings:normal;text-align:start;writing-mode:lr-tb;text-anchor:start;fill:#ffffff;stroke-width:0.70816809"
         id="path998"
         inkscape:connector-curvature="0" />
      <path
         d="m 116.07153,259.50732 h 8.49802 v 2.83267 h -5.38208 v 5.24045 h 4.27734 v 2.83267 h -4.27734 v 6.09025 h 5.38208 v 2.83267 h -8.49802 z"
         style="font-style:normal;font-variant:normal;font-weight:normal;font-stretch:normal;font-size:28.32672882px;font-family:'Bebas Neue';-inkscape-font-specification:'Bebas Neue, Normal';font-variant-ligatures:normal;font-variant-caps:normal;font-variant-numeric:normal;font-feature-settings:normal;text-align:start;writing-mode:lr-tb;text-anchor:start;fill:#ffffff;stroke-width:0.70816809"
         id="path1000"
         inkscape:connector-curvature="0" />
      <path
         d="m 126.3621,259.50732 h 4.61726 q 2.40777,0 3.51251,1.13307 1.10474,1.10474 1.10474,3.42753 v 1.21805 q 0,3.08761 -2.03952,3.90909 v 0.0566 q 1.13307,0.33992 1.58629,1.38801 0.48156,1.04809 0.48156,2.80435 v 3.48419 q 0,0.8498 0.0566,1.38801 0.0567,0.50988 0.28327,1.01976 h -3.17259 q -0.16996,-0.48156 -0.22662,-0.90646 -0.0567,-0.4249 -0.0567,-1.52964 v -3.62582 q 0,-1.35968 -0.45323,-1.89789 -0.4249,-0.53821 -1.50132,-0.53821 h -1.07641 v 8.49802 H 126.362 Z m 4.24901,8.49802 q 0.93478,0 1.38801,-0.48156 0.48155,-0.48155 0.48155,-1.61462 v -1.52964 q 0,-1.07642 -0.39657,-1.55797 -0.36825,-0.48156 -1.18972,-0.48156 h -1.41634 v 5.66535 z"
         style="font-style:normal;font-variant:normal;font-weight:normal;font-stretch:normal;font-size:28.32672882px;font-family:'Bebas Neue';-inkscape-font-specification:'Bebas Neue, Normal';font-variant-ligatures:normal;font-variant-caps:normal;font-variant-numeric:normal;font-feature-settings:normal;text-align:start;writing-mode:lr-tb;text-anchor:start;fill:#ffffff;stroke-width:0.70816809"
         id="path1002"
         inkscape:connector-curvature="0" />
      <path
         d="m 137.75918,259.50732 h 3.11594 v 19.82871 h -3.11594 z"
         style="font-style:normal;font-variant:normal;font-weight:normal;font-stretch:normal;font-size:28.32672882px;font-family:'Bebas Neue';-inkscape-font-specification:'Bebas Neue, Normal';font-variant-ligatures:normal;font-variant-caps:normal;font-variant-numeric:normal;font-feature-settings:normal;text-align:start;writing-mode:lr-tb;text-anchor:start;fill:#ffffff;stroke-width:0.70816809"
         id="path1004"
         inkscape:connector-curvature="0" />
      <path
         d="m 143.18109,259.50732 h 8.24308 v 2.83267 h -5.12713 v 5.52371 h 4.02239 v 2.83268 h -4.02239 v 8.63965 h -3.11595 z"
         style="font-style:normal;font-variant:normal;font-weight:normal;font-stretch:normal;font-size:28.32672882px;font-family:'Bebas Neue';-inkscape-font-specification:'Bebas Neue, Normal';font-variant-ligatures:normal;font-variant-caps:normal;font-variant-numeric:normal;font-feature-settings:normal;text-align:start;writing-mode:lr-tb;text-anchor:start;fill:#ffffff;stroke-width:0.70816809"
         id="path1006"
         inkscape:connector-curvature="0" />
      <path
         d="m 152.91841,259.50732 h 3.11594 v 19.82871 h -3.11594 z"
         style="font-style:normal;font-variant:normal;font-weight:normal;font-stretch:normal;font-size:28.32672882px;font-family:'Bebas Neue';-inkscape-font-specification:'Bebas Neue, Normal';font-variant-ligatures:normal;font-variant-caps:normal;font-variant-numeric:normal;font-feature-settings:normal;text-align:start;writing-mode:lr-tb;text-anchor:start;fill:#ffffff;stroke-width:0.70816809"
         id="path1008"
         inkscape:connector-curvature="0" />
      <path
         d="m 158.34032,259.50732 h 8.49802 v 2.83267 h -5.38208 v 5.24045 h 4.27734 v 2.83267 h -4.27734 v 6.09025 h 5.38208 v 2.83267 h -8.49802 z"
         style="font-style:normal;font-variant:normal;font-weight:normal;font-stretch:normal;font-size:28.32672882px;font-family:'Bebas Neue';-inkscape-font-specification:'Bebas Neue, Normal';font-variant-ligatures:normal;font-variant-caps:normal;font-variant-numeric:normal;font-feature-settings:normal;text-align:start;writing-mode:lr-tb;text-anchor:start;fill:#ffffff;stroke-width:0.70816809"
         id="path1010"
         inkscape:connector-curvature="0" />
      <path
         d="m 168.63089,259.50732 h 4.75889 q 2.32279,0 3.48419,1.24637 1.16139,1.24638 1.16139,3.65415 v 10.02766 q 0,2.40778 -1.16139,3.65415 -1.1614,1.24638 -3.48419,1.24638 h -4.75889 z m 4.70224,16.99604 q 0.76482,0 1.16139,-0.45323 0.4249,-0.45323 0.4249,-1.47299 v -10.31093 q 0,-1.01976 -0.4249,-1.47299 -0.39657,-0.45323 -1.16139,-0.45323 h -1.5863 v 14.16337 z"
         style="font-style:normal;font-variant:normal;font-weight:normal;font-stretch:normal;font-size:28.32672882px;font-family:'Bebas Neue';-inkscape-font-specification:'Bebas Neue, Normal';font-variant-ligatures:normal;font-variant-caps:normal;font-variant-numeric:normal;font-feature-settings:normal;text-align:start;writing-mode:lr-tb;text-anchor:start;fill:#ffffff;stroke-width:0.70816809"
         id="path1012"
         inkscape:connector-curvature="0" />
      <path
         d="m 187.0831,259.50732 h 4.22068 l 3.22925,19.82871 h -3.11594 l -0.56654,-3.93742 v 0.0567 h -3.54084 l -0.56653,3.88076 h -2.88933 z m 3.39921,13.25691 -1.38801,-9.80105 h -0.0567 l -1.35968,9.80105 z"
         style="font-style:normal;font-variant:normal;font-weight:normal;font-stretch:normal;font-size:28.32672882px;font-family:'Bebas Neue';-inkscape-font-specification:'Bebas Neue, Normal';font-variant-ligatures:normal;font-variant-caps:normal;font-variant-numeric:normal;font-feature-settings:normal;text-align:start;writing-mode:lr-tb;text-anchor:start;fill:#ffffff;stroke-width:0.70816809"
         id="path1014"
         inkscape:connector-curvature="0" />
      <path
         d="m 199.95715,279.6193 q -2.26614,0 -3.42753,-1.27471 -1.1614,-1.30303 -1.1614,-3.7108 v -1.13307 h 2.94598 v 1.35969 q 0,1.92621 1.61462,1.92621 0.79315,0 1.18973,-0.45322 0.4249,-0.48156 0.4249,-1.52965 0,-1.24637 -0.56654,-2.18116 -0.56653,-0.9631 -2.09617,-2.29446 -1.92622,-1.6996 -2.69104,-3.05929 -0.76483,-1.38801 -0.76483,-3.11594 0,-2.35112 1.18973,-3.62582 1.18972,-1.30303 3.45586,-1.30303 2.23781,0 3.37088,1.30303 1.16139,1.2747 1.16139,3.68248 v 0.82147 h -2.94597 v -1.01976 q 0,-1.01976 -0.39658,-1.47299 -0.39657,-0.48156 -1.16139,-0.48156 -1.55798,0 -1.55798,1.8979 0,1.07641 0.56654,2.01119 0.59486,0.93479 2.1245,2.26614 1.95455,1.69961 2.69104,3.08761 0.7365,1.38801 0.7365,3.25758 0,2.4361 -1.21805,3.73913 -1.18972,1.30303 -3.48419,1.30303 z"
         style="font-style:normal;font-variant:normal;font-weight:normal;font-stretch:normal;font-size:28.32672882px;font-family:'Bebas Neue';-inkscape-font-specification:'Bebas Neue, Normal';font-variant-ligatures:normal;font-variant-caps:normal;font-variant-numeric:normal;font-feature-settings:normal;text-align:start;writing-mode:lr-tb;text-anchor:start;fill:#ffffff;stroke-width:0.70816809"
         id="path1016"
         inkscape:connector-curvature="0" />
      <path
         d="m 210.46902,279.6193 q -2.26614,0 -3.42753,-1.27471 -1.1614,-1.30303 -1.1614,-3.7108 v -1.13307 h 2.94598 v 1.35969 q 0,1.92621 1.61463,1.92621 0.79314,0 1.18972,-0.45322 0.4249,-0.48156 0.4249,-1.52965 0,-1.24637 -0.56654,-2.18116 -0.56653,-0.9631 -2.09617,-2.29446 -1.92622,-1.6996 -2.69104,-3.05929 -0.76482,-1.38801 -0.76482,-3.11594 0,-2.35112 1.18972,-3.62582 1.18972,-1.30303 3.45586,-1.30303 2.23781,0 3.37088,1.30303 1.1614,1.2747 1.1614,3.68248 v 0.82147 h -2.94598 v -1.01976 q 0,-1.01976 -0.39658,-1.47299 -0.39657,-0.48156 -1.16139,-0.48156 -1.55797,0 -1.55797,1.8979 0,1.07641 0.56653,2.01119 0.59486,0.93479 2.12451,2.26614 1.95454,1.69961 2.69103,3.08761 0.7365,1.38801 0.7365,3.25758 0,2.4361 -1.21805,3.73913 -1.18972,1.30303 -3.48419,1.30303 z"
         style="font-style:normal;font-variant:normal;font-weight:normal;font-stretch:normal;font-size:28.32672882px;font-family:'Bebas Neue';-inkscape-font-specification:'Bebas Neue, Normal';font-variant-ligatures:normal;font-variant-caps:normal;font-variant-numeric:normal;font-feature-settings:normal;text-align:start;writing-mode:lr-tb;text-anchor:start;fill:#ffffff;stroke-width:0.70816809"
         id="path1018"
         inkscape:connector-curvature="0" />
      <path
         d="m 216.93018,259.50732 h 8.49802 v 2.83267 h -5.38208 v 5.24045 h 4.27734 v 2.83267 h -4.27734 v 6.09025 h 5.38208 v 2.83267 h -8.49802 z"
         style="font-style:normal;font-variant:normal;font-weight:normal;font-stretch:normal;font-size:28.32672882px;font-family:'Bebas Neue';-inkscape-font-specification:'Bebas Neue, Normal';font-variant-ligatures:normal;font-variant-caps:normal;font-variant-numeric:normal;font-feature-settings:normal;text-align:start;writing-mode:lr-tb;text-anchor:start;fill:#ffffff;stroke-width:0.70816809"
         id="path1020"
         inkscape:connector-curvature="0" />
      <path
         d="m 229.65684,262.33999 h -3.25757 v -2.83267 h 9.63109 v 2.83267 h -3.25758 v 16.99604 h -3.11594 z"
         style="font-style:normal;font-variant:normal;font-weight:normal;font-stretch:normal;font-size:28.32672882px;font-family:'Bebas Neue';-inkscape-font-specification:'Bebas Neue, Normal';font-variant-ligatures:normal;font-variant-caps:normal;font-variant-numeric:normal;font-feature-settings:normal;text-align:start;writing-mode:lr-tb;text-anchor:start;fill:#ffffff;stroke-width:0.70816809"
         id="path1022"
         inkscape:connector-curvature="0" />
      <path
         d="m 241.56204,279.6193 q -2.26614,0 -3.42753,-1.27471 -1.1614,-1.30303 -1.1614,-3.7108 v -1.13307 h 2.94598 v 1.35969 q 0,1.92621 1.61462,1.92621 0.79315,0 1.18973,-0.45322 0.4249,-0.48156 0.4249,-1.52965 0,-1.24637 -0.56654,-2.18116 -0.56653,-0.9631 -2.09618,-2.29446 -1.92621,-1.6996 -2.69103,-3.05929 -0.76483,-1.38801 -0.76483,-3.11594 0,-2.35112 1.18973,-3.62582 1.18972,-1.30303 3.45586,-1.30303 2.23781,0 3.37088,1.30303 1.16139,1.2747 1.16139,3.68248 v 0.82147 h -2.94598 v -1.01976 q 0,-1.01976 -0.39657,-1.47299 -0.39657,-0.48156 -1.1614,-0.48156 -1.55797,0 -1.55797,1.8979 0,1.07641 0.56654,2.01119 0.59486,0.93479 2.1245,2.26614 1.95455,1.69961 2.69104,3.08761 0.7365,1.38801 0.7365,3.25758 0,2.4361 -1.21805,3.73913 -1.18972,1.30303 -3.48419,1.30303 z"
         style="font-style:normal;font-variant:normal;font-weight:normal;font-stretch:normal;font-size:28.32672882px;font-family:'Bebas Neue';-inkscape-font-specification:'Bebas Neue, Normal';font-variant-ligatures:normal;font-variant-caps:normal;font-variant-numeric:normal;font-feature-settings:normal;text-align:start;writing-mode:lr-tb;text-anchor:start;fill:#ffffff;stroke-width:0.70816809"
         id="path1024"
         inkscape:connector-curvature="0" />
    </g>
  </g>
</svg>
