<?xml version="1.0" encoding="UTF-8" standalone="no"?>
<!-- Created with Inkscape (http://www.inkscape.org/) -->

<svg
   xmlns:dc="http://purl.org/dc/elements/1.1/"
   xmlns:cc="http://creativecommons.org/ns#"
   xmlns:rdf="http://www.w3.org/1999/02/22-rdf-syntax-ns#"
   xmlns:svg="http://www.w3.org/2000/svg"
   xmlns="http://www.w3.org/2000/svg"
   xmlns:sodipodi="http://sodipodi.sourceforge.net/DTD/sodipodi-0.dtd"
   xmlns:inkscape="http://www.inkscape.org/namespaces/inkscape"
   width="1024"
   height="1024"
   viewBox="0 0 270.93333 270.93333"
   version="1.1"
   id="svg8"
   inkscape:version="0.92.4 (5da689c313, 2019-01-14)"
   sodipodi:docname="BVA-icon.black.svg">
  <defs
     id="defs2" />
  <sodipodi:namedview
     id="base"
     pagecolor="#ffffff"
     bordercolor="#666666"
     borderopacity="1.0"
     inkscape:pageopacity="0.0"
     inkscape:pageshadow="2"
     inkscape:zoom="0.49497475"
     inkscape:cx="225.52333"
     inkscape:cy="506.64742"
     inkscape:document-units="mm"
     inkscape:current-layer="g897"
     showgrid="false"
     units="px"
     width="1024px"
     showguides="true"
     inkscape:guide-bbox="true"
     inkscape:window-width="1920"
     inkscape:window-height="1017"
     inkscape:window-x="-8"
     inkscape:window-y="728"
     inkscape:window-maximized="1" />
  <metadata
     id="metadata5">
    <rdf:RDF>
      <cc:Work
         rdf:about="">
        <dc:format>image/svg+xml</dc:format>
        <dc:type
           rdf:resource="http://purl.org/dc/dcmitype/StillImage" />
        <dc:title></dc:title>
      </cc:Work>
    </rdf:RDF>
  </metadata>
  <g
     inkscape:groupmode="layer"
     id="layer2"
     inkscape:label="black"
     style="display:inline">
    <rect
       style="opacity:1;fill:#000000;fill-opacity:1;stroke:none;stroke-width:12.34103107;stroke-linecap:square;stroke-linejoin:round;stroke-miterlimit:4;stroke-dasharray:none;stroke-dashoffset:111.40837097;stroke-opacity:1;paint-order:fill markers stroke"
       id="rect889"
       width="245.90672"
       height="250.88734"
       x="12.513305"
       y="18.668701"
       ry="44.494862"
       rx="42.716892" />
    <path
       style="opacity:1;fill:#ffffff;fill-opacity:1;stroke:none;stroke-width:8.40772343;stroke-linecap:square;stroke-linejoin:round;stroke-miterlimit:4;stroke-dasharray:none;stroke-dashoffset:111.40837097;stroke-opacity:1;paint-order:fill markers stroke"
       d="M 144.50763,1.3772884 131.88284,40.002894 h 24.69842 L 169.7197,1.3772884 Z M 156.58126,40.002894 93.3933,225.76507 H 56.948562 L 59.043654,63.325953 H 86.751127 L 82.573763,189.33217 h 0.498873 L 131.88284,40.002894 H 56.904195 c -12.765732,0 -23.043052,10.277329 -23.043052,23.043053 V 225.59352 c 0,12.76571 10.27732,23.04306 23.043052,23.04306 H 214.02919 c 12.76572,0 23.04304,-10.27735 23.04304,-23.04306 V 63.045947 c 0,-12.765724 -10.27732,-23.043053 -23.04304,-23.043053 z m 20.21049,23.323059 h 37.19306 l -0.0977,162.439117 h -27.45804 l 0.67731,-32.25554 -0.0809,0.46339 h -31.20245 l -10.58095,31.79215 h -25.46055 z m 12.24718,28.310853 -26.09549,80.290804 h 24.71223 l 1.88213,-80.290804 z"
       id="rect1049"
       inkscape:connector-curvature="0" />
  </g>
  <g
     style="display:none"
     inkscape:label="white"
     id="g897"
     inkscape:groupmode="layer">
    <rect
       ry="44.494862"
       y="18.668701"
       x="12.513305"
       height="250.88734"
       width="245.90672"
       id="rect893"
       style="opacity:1;fill:#ffffff;fill-opacity:1;stroke:none;stroke-width:12.34103107;stroke-linecap:square;stroke-linejoin:round;stroke-miterlimit:4;stroke-dasharray:none;stroke-dashoffset:111.40837097;stroke-opacity:1;paint-order:fill markers stroke" />
    <path
       inkscape:connector-curvature="0"
       id="path895"
       d="M 144.50763,1.3772884 131.88284,40.002894 h 24.69842 L 169.7197,1.3772884 Z M 156.58126,40.002894 93.3933,225.76507 H 56.948562 L 59.043654,63.325953 H 86.751127 L 82.573763,189.33217 h 0.498873 L 131.88284,40.002894 H 56.904195 c -12.765732,0 -23.043052,10.277329 -23.043052,23.043053 V 225.59352 c 0,12.76571 10.27732,23.04306 23.043052,23.04306 H 214.02919 c 12.76572,0 23.04304,-10.27735 23.04304,-23.04306 V 63.045947 c 0,-12.765724 -10.27732,-23.043053 -23.04304,-23.043053 z m 20.21049,23.323059 h 37.19306 l -0.0977,162.439117 h -27.45804 l 0.67731,-32.25554 -0.0809,0.46339 h -31.20245 l -10.58095,31.79215 h -25.46055 z m 12.24718,28.310853 -26.09549,80.290804 h 24.71223 l 1.88213,-80.290804 z"
       style="opacity:1;fill:#000000;fill-opacity:1;stroke:none;stroke-width:8.40772343;stroke-linecap:square;stroke-linejoin:round;stroke-miterlimit:4;stroke-dasharray:none;stroke-dashoffset:111.40837097;stroke-opacity:1;paint-order:fill markers stroke" />
  </g>
</svg>
